<svg width="128" height="128" viewBox="0 0 128 128" fill="none" xmlns="http://www.w3.org/2000/svg">
<g clip-path="url(#clip0_40_10)">
<path d="M66.48 120L63.476 119.004C63.476 119.004 63.876 103.804 58.376 102.736C54.776 98.5441 58.908 -76.2279 72.068 102.14C69.5711 103.407 67.6606 105.589 66.736 108.232C66.2404 112.135 66.1546 116.079 66.48 120Z" fill="url(#paint0_linear_40_10)"/>
<path d="M68.104 105.316C76.1023 99.2951 82.2276 91.1278 85.768 81.7635C89.3084 72.3992 90.1184 62.2224 88.104 52.416C82.224 26.476 68.3 17.948 66.8 14.692C65.5058 12.6645 64.4012 10.5221 63.5 8.29199L64.608 80.568C64.608 80.568 62.312 102.656 68.104 105.316Z" fill="url(#paint1_linear_40_10)"/>
<path d="M61.9484 106.276C61.9484 106.276 37.4644 89.6 38.8804 60.1C39.0125 51.2066 41.0516 42.4451 44.8601 34.4073C48.6685 26.3695 54.1575 19.2426 60.9564 13.508C61.751 12.833 62.3822 11.9867 62.8027 11.0327C63.2232 10.0787 63.4221 9.04187 63.3844 8C64.9084 11.28 64.6604 56.972 64.8204 62.316C65.4404 83.104 63.6644 102.352 61.9484 106.276Z" fill="url(#paint2_linear_40_10)"/>
</g>
<defs>
<linearGradient id="paint0_linear_40_10" x1="46.2866" y1="65.0094" x2="80.8132" y2="76.7258" gradientUnits="userSpaceOnUse">
<stop offset="0.231" stop-color="#999875"/>
<stop offset="0.563" stop-color="#9B9977"/>
<stop offset="0.683" stop-color="#A09F7E"/>
<stop offset="0.768" stop-color="#A9A889"/>
<stop offset="0.837" stop-color="#B7B69A"/>
<stop offset="0.896" stop-color="#C9C7B0"/>
<stop offset="0.948" stop-color="#DEDDCB"/>
<stop offset="0.994" stop-color="#F8F6EB"/>
<stop offset="1" stop-color="#FBF9EF"/>
</linearGradient>
<linearGradient id="paint1_linear_40_10" x1="58.9478" y1="7.77554" x2="74.2119" y2="103.091" gradientUnits="userSpaceOnUse">
<stop stop-color="#48A547"/>
<stop offset="1" stop-color="#3F9143"/>
</linearGradient>
<linearGradient id="paint2_linear_40_10" x1="36.7743" y1="63.0201" x2="77.7368" y2="49.3018" gradientUnits="userSpaceOnUse">
<stop stop-color="#41A247"/>
<stop offset="0.352" stop-color="#4BA74B"/>
<stop offset="0.956" stop-color="#67B554"/>
<stop offset="1" stop-color="#69B655"/>
</linearGradient>
<clipPath id="clip0_40_10">
<rect width="128" height="128" fill="white"/>
</clipPath>
</defs>
</svg>
