<svg width="128" height="128" viewBox="0 0 128 128" fill="none" xmlns="http://www.w3.org/2000/svg">
<path d="M64 124C62.3541 124 60.8179 123.559 59.3915 122.787L44.797 114.078C42.6025 112.865 43.6998 112.424 44.3581 112.204C47.3207 111.211 47.8694 110.991 50.9417 109.227C51.2713 109.006 51.7102 109.116 52.039 109.337L63.2319 116.062C63.6708 116.282 64.2195 116.282 64.5486 116.062L108.332 90.596C108.771 90.3755 108.99 89.9345 108.99 89.3833V38.5607C108.99 38.0095 108.771 37.5686 108.332 37.3481L64.5486 11.9919C64.1097 11.7714 63.5611 11.7714 63.2319 11.9919L19.4489 37.3485C19.01 37.569 18.7906 38.1202 18.7906 38.5611V89.3833C18.7906 89.8243 19.01 90.3755 19.4489 90.596L31.41 97.541C37.8842 100.848 41.9437 96.9898 41.9437 93.1314V42.9703C41.9437 42.3088 42.4928 41.6474 43.2609 41.6474H48.8573C49.5157 41.6474 50.174 42.1986 50.174 42.9703V93.131C50.174 101.84 45.4554 106.911 37.2255 106.911C34.7018 106.911 32.7267 106.911 27.1306 104.155L15.6085 97.541C12.7556 95.887 11 92.8003 11 89.4932V38.6714C11 35.3642 12.7556 32.2775 15.6085 30.6235L59.3915 5.15751C62.1346 3.61416 65.8654 3.61416 68.6085 5.15751L112.391 30.6235C115.244 32.2771 117 35.3638 117 38.6714V89.4936C117 92.8007 115.244 95.8874 112.391 97.541L68.6085 123.008C67.1821 123.669 65.5362 124 64 124M77.4968 89.0526C58.2938 89.0526 54.3436 80.2335 54.3436 72.7368C54.3436 72.0754 54.8923 71.414 55.6604 71.414H61.3661C62.0245 71.414 62.5736 71.8549 62.5736 72.5164C63.4514 78.359 65.9751 81.2257 77.6065 81.2257C86.8239 81.2257 90.7745 79.1311 90.7745 74.1704C90.7745 71.3037 89.6773 69.2092 75.3023 67.7757C63.3416 66.5631 55.8798 63.9173 55.8798 54.3265C55.8798 45.3964 63.3412 40.1049 75.8509 40.1049C89.8963 40.1049 96.8095 44.9554 97.6873 55.5387C97.6873 55.8695 97.5776 56.2002 97.3581 56.5309C97.1387 56.7514 96.8095 56.9719 96.4803 56.9719H90.7745C90.2255 56.9719 89.6773 56.5309 89.5671 55.9797C88.2504 49.9166 84.8489 47.9323 75.8509 47.9323C65.756 47.9323 64.5486 51.4599 64.5486 54.1056C64.5486 57.303 65.9751 58.2947 79.5816 60.0585C93.0788 61.8224 99.4429 64.3583 99.4429 73.8392C99.3332 83.5407 91.4329 89.0526 77.4968 89.0526Z" fill="#539E43"/>
</svg>
