<svg width="222" height="222" viewBox="0 0 222 222" fill="none" xmlns="http://www.w3.org/2000/svg">
<path d="M111 130.772C121.92 130.772 130.772 121.92 130.772 111C130.772 100.08 121.92 91.2281 111 91.2281C100.08 91.2281 91.2281 100.08 91.2281 111C91.2281 121.92 100.08 130.772 111 130.772Z" fill="#61DAFB"/>
<path d="M186.098 78.3937C182.283 77.0062 178.294 75.6188 174.131 74.4047C175.172 70.2422 176.039 66.0797 176.733 62.0906C180.375 39.1969 176.386 23.0672 165.286 16.8234C161.991 14.9156 158.348 14.0484 154.186 14.0484C142.045 14.0484 126.609 23.0672 111 38.1562C95.3906 23.0672 79.9547 14.0484 67.814 14.0484C63.6515 14.0484 60.0094 14.9156 56.714 16.8234C45.614 23.2406 41.625 39.3703 45.2672 62.0906C45.9609 66.0797 46.8281 70.2422 47.8687 74.4047C43.7062 75.6188 39.7172 76.8328 35.9015 78.3937C14.2219 86.7187 2.4281 98.1656 2.4281 111C2.4281 123.834 14.3953 135.281 35.9015 143.606C39.7172 144.994 43.7062 146.381 47.8687 147.595C46.8281 151.758 45.9609 155.92 45.2672 159.909C41.625 182.803 45.614 198.933 56.714 205.177C60.0094 207.084 63.6515 207.952 67.814 207.952C80.1281 207.952 95.564 198.933 111 183.844C126.609 198.933 142.045 207.952 154.186 207.952C158.348 207.952 161.991 207.084 165.286 205.177C176.386 198.759 180.375 182.63 176.733 159.909C176.039 155.92 175.172 151.758 174.131 147.595C178.294 146.381 182.283 145.167 186.098 143.606C207.778 135.281 219.572 123.834 219.572 111C219.572 98.1656 207.778 86.7187 186.098 78.3937ZM160.43 25.4953C167.541 29.6578 169.969 42.4922 167.02 60.7031C166.5 64.3453 165.633 68.1609 164.592 72.15C155.573 70.0687 146.034 68.6812 135.975 67.8141C130.078 59.4891 124.008 52.0312 117.937 45.2672C130.772 32.6062 143.78 23.9344 154.359 23.9344C156.614 23.9344 158.695 24.4547 160.43 25.4953ZM141.005 128.344C137.883 133.894 134.241 139.444 130.425 144.994C124.008 145.514 117.591 145.688 111 145.688C104.236 145.688 97.8187 145.514 91.575 144.994C87.7593 139.444 84.2906 133.894 81.1687 128.344C77.8734 122.62 74.7515 116.723 71.9765 111C74.7515 105.277 77.8734 99.3797 81.1687 93.6563C84.2906 88.1063 87.9328 82.5563 91.7484 77.0063C98.1656 76.4859 104.583 76.3125 111.173 76.3125C117.937 76.3125 124.355 76.4859 130.598 77.0063C134.414 82.5563 137.883 88.1063 141.005 93.6563C144.3 99.3797 147.422 105.277 150.197 111C147.248 116.723 144.3 122.447 141.005 128.344ZM155.4 122.62C158.002 128.691 160.083 134.588 161.991 140.484C156.094 141.872 149.85 142.913 143.259 143.78C145.341 140.484 147.595 137.016 149.503 133.373C151.584 129.731 153.492 126.089 155.4 122.62ZM111 169.622C106.837 165.113 102.848 160.256 99.0328 155.227C103.022 155.4 107.011 155.573 111 155.573C114.989 155.573 118.978 155.4 122.967 155.227C119.152 160.256 115.162 165.113 111 169.622ZM78.7406 143.606C72.15 142.739 65.9062 141.698 60.0093 140.311C61.9172 134.588 63.9984 128.517 66.6 122.447C68.5078 125.916 70.4156 129.558 72.4968 133.027C74.5781 136.842 76.6594 140.138 78.7406 143.606ZM66.6 99.3797C63.9984 93.3094 61.9172 87.4125 60.0093 81.5156C65.9062 80.1281 72.15 79.0875 78.7406 78.2203C76.6594 81.5156 74.4047 84.9844 72.4968 88.6266C70.4156 92.2687 68.5078 95.9109 66.6 99.3797ZM111 52.3781C115.162 56.8875 119.152 61.7437 122.967 66.7734C118.978 66.6 114.989 66.4266 111 66.4266C107.011 66.4266 103.022 66.6 99.0328 66.7734C102.848 61.7437 106.837 56.8875 111 52.3781ZM149.503 88.8L143.259 78.3937C149.85 79.2609 156.094 80.3016 161.991 81.6891C160.083 87.4125 158.002 93.4828 155.4 99.5531C153.492 95.9109 151.584 92.2687 149.503 88.8ZM54.9797 60.7031C52.0312 42.4922 54.4593 29.6578 61.5703 25.4953C63.3047 24.4547 65.3859 23.9344 67.6406 23.9344C78.0468 23.9344 91.0547 32.4328 104.062 45.2672C97.9922 51.8578 91.9218 59.4891 86.025 67.8141C75.9656 68.6812 66.4265 70.2422 57.4078 72.15C56.3672 68.1609 55.6734 64.3453 54.9797 60.7031ZM12.1406 111C12.1406 102.848 22.0265 94.1766 39.3703 87.7594C42.839 86.3719 46.6547 85.1578 50.4703 84.1172C53.2453 92.7891 56.714 101.981 60.8765 111.173C56.714 120.366 53.0719 129.384 50.4703 138.056C26.5359 131.119 12.1406 120.713 12.1406 111ZM61.5703 196.505C54.4593 192.342 52.0312 179.508 54.9797 161.297C55.5 157.655 56.3672 153.839 57.4078 149.85C66.4265 151.931 75.9656 153.319 86.025 154.186C91.9218 162.511 97.9922 169.969 104.062 176.733C91.2281 189.394 78.2203 198.066 67.6406 198.066C65.3859 198.066 63.3047 197.545 61.5703 196.505ZM167.02 161.297C169.969 179.508 167.541 192.342 160.43 196.505C158.695 197.545 156.614 198.066 154.359 198.066C143.953 198.066 130.945 189.567 117.937 176.733C124.008 170.142 130.078 162.511 135.975 154.186C146.034 153.319 155.573 151.758 164.592 149.85C165.633 153.839 166.327 157.655 167.02 161.297ZM182.63 134.241C179.161 135.628 175.345 136.842 171.53 137.883C168.755 129.211 165.286 120.019 161.123 110.827C165.286 101.634 168.928 92.6156 171.53 83.9438C195.464 90.8813 209.859 101.288 209.859 111C209.859 119.152 199.8 127.823 182.63 134.241Z" fill="#61DAFB"/>
</svg>
