<svg xmlns="http://www.w3.org/2000/svg" viewBox="0 0 64 64" id="seo">
  <path d="M20.00166,50.62127c2.96899,0,5.82666-.71899,8.38068-2.06677l4.60468,7.90955c2.41736,4.44202,8.99353,5.27533,12.47168,1.61407,3.67084-3.47479,2.82123-10.04712-1.61438-12.4715,.00012,0-7.9295-4.61633-7.9295-4.61633,2.263-4.33099,2.73462-9.50232,1.10541-14.23621-.27832-1.11353-1.97717-.90399-1.96875,.25739,3.71417,10.37946-3.9079,21.68817-15.04999,21.60968-8.5968,.17725-16.17822-7.40198-15.99969-16-.16498-10.927,11.24994-18.87885,21.45898-15.03973,1.23645,.4353,1.91199-1.41595,.68146-1.88007C14.66041,11.38262,1.81379,20.32891,2.00178,32.62145c-.19971,9.67151,8.32715,18.20026,17.99988,17.99982Zm12.72705-5.27344c.81403-.81396,1.53046-1.70221,2.16211-2.63953l7.94678,4.62683c3.31848,1.81299,3.95306,6.72992,1.20691,9.3291-2.60034,2.73749-7.52307,2.11401-9.32898-1.20618,0,.00012-4.62024-7.93622-4.62024-7.93622,.93353-.63538,1.81732-1.35791,2.63342-2.17401Z"></path>
  <path d="M24.78681,22.7116c1.18896,.55396,2.04529-1.21057,.87006-1.80084-4.96869-2.40082-10.93695-1.39105-14.85345,2.51422-8.16376,8.15039-2.23419,22.27374,9.19794,22.18835,10.37543,.11401,16.76465-11.98315,10.61536-20.50098-.7641-1.06232-2.38135,.08636-1.63062,1.15741,3.1059,4.37836,2.60052,10.32318-1.20026,14.13373-4.29297,4.28223-11.27637,4.28125-15.56641,.00195-8.57623-8.90717,1.35504-22.87317,12.56738-17.69385Z"></path>
  <path d="M19.35566,33.38494c.41974,.35529,1.05176,.30548,1.40967-.11816l8.50647-10.05511c1.33044,.70312,3.15088,.45654,4.25775-.51617l5.60907,4.07794c-.61646,1.86786,.90216,3.88104,2.86304,3.84778,2.19348,.05713,3.72687-2.47156,2.65033-4.37561l10.34967-11.08691v3.46259c.02057,1.31122,1.97815,1.31683,2-.00006,0,.00006,0-5.99994,0-5.99994-.02185-.55054-.45642-.9765-1-1h-6c-1.31165,.02161-1.31683,1.97748,.00006,2-.00006,0,3.69775,0,3.69775,0l-10.50311,11.25134c-.90204-.41882-2.09796-.29541-2.89026,.27765l-5.59082-4.0647c1.0744-2.53381-.95349-5.5224-3.71362-5.46429-3.16412-.09735-5.15509,3.80664-3.26031,6.30219l-8.50336,10.05231c-.35645,.4209-.30371,1.05273,.11768,1.40918Zm22.646-6.76367c1.31421,.02332,1.31403,1.97681-.00006,2-1.31415-.02338-1.31396-1.97687,.00006-2Zm-11-9c1.5896-.04944,2.5838,1.92029,1.61914,3.16467-1.07269,1.56226-3.65405,.74701-3.61914-1.16473,0-1.10297,.89697-1.99994,2-1.99994Z"></path>
  <path d="M56.00166,3.62127H19.00166c-3.30859,0-6,2.69141-6,6v3.93994c.01843,1.31586,1.98737,1.30408,2-.00006,0,.00006,0-3.93988,0-3.93988,0-2.20557,1.79443-4,4-4H56.00166c2.20605,0,4,1.79443,4,4v30c0,2.20605-1.79395,4-4,4h-10.05957c-.55273,0-1,.44727-1,1s.44727,1,1,1h10.05957c3.30859,0,6-2.69141,6-6V9.62127c0-3.30859-2.69141-6-6-6Z"></path>
  <path d="M46.00166 38.62127c-1.31122.02069-1.31714 1.97809.00006 2-.00006 0 10.99994 0 10.99994 0 1.31122-.02069 1.31714-1.97809 0-2h-11zM57.00166 34.62127h-6c-1.31281.02118-1.31586 1.97821.00006 2-.00006 0 5.99994 0 5.99994 0 1.31281-.02118 1.31586-1.97827 0-2zM26.00166 10.62127c1.31201-.02161 1.31622-1.9776 0-2h-8c-1.31201.02161-1.31622 1.97754.00006 2-.00006 0 7.99994 0 7.99994 0z"></path>
</svg>
