<svg width="128" height="128" viewBox="0 0 128 128" fill="none" xmlns="http://www.w3.org/2000/svg">
<path d="M114.752 8H13.248C10.3496 8 8 10.3496 8 13.248V114.752C8 117.65 10.3496 120 13.248 120H114.752C117.65 120 120 117.65 120 114.752V13.248C120 10.3496 117.65 8 114.752 8Z" fill="#3178C6"/>
<path fill-rule="evenodd" clip-rule="evenodd" d="M72.98 95.0359V107.308C75.2097 108.408 77.586 109.183 80.036 109.608C82.8671 110.131 85.741 110.388 88.62 110.376C91.4259 110.389 94.2254 110.106 96.972 109.532C99.4379 109.034 101.791 108.084 103.912 106.732C105.881 105.461 107.504 103.721 108.636 101.668C110.662 97.4172 110.93 92.5386 109.38 88.0919C108.726 86.4291 107.751 84.9109 106.512 83.6239C105.181 82.2554 103.67 81.0751 102.02 80.1159C100.12 79.0032 98.1462 78.0222 96.112 77.1799C94.512 76.5159 93.072 75.8706 91.792 75.2439C90.6551 74.6996 89.5671 74.0586 88.54 73.3279C87.7355 72.7639 87.0368 72.0625 86.476 71.2559C85.9914 70.5235 85.7391 69.662 85.752 68.7839C85.7413 67.9758 85.9665 67.182 86.4 66.4999C86.8708 65.786 87.4988 65.1894 88.236 64.7559C89.137 64.2254 90.1175 63.8432 91.14 63.6239C92.3952 63.3451 93.6782 63.2108 94.964 63.2239C96.0453 63.2276 97.1252 63.3051 98.196 63.4559C99.3523 63.6122 100.496 63.8488 101.62 64.1639C102.763 64.4807 103.88 64.8818 104.964 65.3639C106.015 65.8326 107.021 66.3976 107.968 67.0519V55.5999C105.996 54.854 103.952 54.3177 101.868 53.9999C99.3515 53.6337 96.8108 53.4612 94.268 53.4839C91.4884 53.4689 88.717 53.7845 86.012 54.4239C83.5669 54.9826 81.2421 55.9757 79.148 57.3559C77.2027 58.6518 75.5964 60.3952 74.464 62.4399C73.2638 64.7106 72.67 67.2525 72.74 69.8199C72.6513 73.215 73.7696 76.5316 75.896 79.1799C78.5047 82.1162 81.7943 84.3674 85.476 85.7359C87.156 86.4292 88.7226 87.1079 90.176 87.7719C91.4872 88.3554 92.7476 89.0471 93.944 89.8399C94.9089 90.4676 95.7564 91.2596 96.448 92.1799C97.056 93.0146 97.3787 94.0232 97.368 95.0559C97.3735 95.8298 97.1748 96.5914 96.792 97.2639C96.3666 97.9866 95.7688 98.5927 95.052 99.0279C94.155 99.5747 93.1737 99.9694 92.148 100.196C90.8117 100.495 89.445 100.636 88.076 100.616C85.3892 100.611 82.7238 100.137 80.2 99.2159C77.5632 98.2644 75.118 96.8488 72.98 95.0359ZM52.364 64.4839H68.364V54.3759H23.752V64.4839H39.68V109.5H52.364V64.4839Z" fill="white"/>
</svg>
